<?xml version="1.0" encoding="UTF-8"?>
<svg version="1.1" xmlns="http://www.w3.org/2000/svg" width="256" height="256">
<path d="M0 0 C3.41456091 2.9190571 6.72788676 5.92272362 10 9 C10.90298828 9.80630859 10.90298828 9.80630859 11.82421875 10.62890625 C32.83191078 30.1675289 44.23006756 60.92206056 45.28125 89.09375 C46.04236516 123.86719907 35.14830922 153.93465306 11.35546875 179.5703125 C-11.03984088 202.67127865 -40.65113695 215.52861754 -72.84960938 216.28344727 C-108.00661715 216.64336502 -138.6635454 204.14752034 -163.8125 179.625 C-169.76372329 173.61956966 -174.52487291 167.18913003 -179 160 C-179.69867188 158.90042969 -180.39734375 157.80085937 -181.1171875 156.66796875 C-197.43520794 129.72784067 -201.66031745 95.82029215 -194.1953125 65.34375 C-188.33321071 43.4304268 -177.58467891 25.29957244 -162 9 C-161.39027344 8.32710937 -160.78054687 7.65421875 -160.15234375 6.9609375 C-119.2879575 -36.59303681 -44.77178577 -36.91157057 0 0 Z " fill="#1E2424" transform="translate(204,33)"/>
<path d="M0 0 C3.41456091 2.9190571 6.72788676 5.92272362 10 9 C10.90298828 9.80630859 10.90298828 9.80630859 11.82421875 10.62890625 C32.83191078 30.1675289 44.23006756 60.92206056 45.28125 89.09375 C46.04236516 123.86719907 35.14830922 153.93465306 11.35546875 179.5703125 C-11.03984088 202.67127865 -40.65113695 215.52861754 -72.84960938 216.28344727 C-108.00661715 216.64336502 -138.6635454 204.14752034 -163.8125 179.625 C-169.76372329 173.61956966 -174.52487291 167.18913003 -179 160 C-179.69867188 158.90042969 -180.39734375 157.80085937 -181.1171875 156.66796875 C-197.43520794 129.72784067 -201.66031745 95.82029215 -194.1953125 65.34375 C-188.33321071 43.4304268 -177.58467891 25.29957244 -162 9 C-161.39027344 8.32710937 -160.78054687 7.65421875 -160.15234375 6.9609375 C-119.2879575 -36.59303681 -44.77178577 -36.91157057 0 0 Z M-163.58984375 21.9921875 C-184.29535635 47.83213029 -191.66579221 77.28453843 -188.72753906 110.03710938 C-185.93377694 132.65629389 -175.77677025 152.86003303 -161 170 C-160.46375 170.65871094 -159.9275 171.31742188 -159.375 171.99609375 C-153.05342461 179.70910285 -145.3012095 185.55498996 -137 191 C-136.12988281 191.5775 -135.25976562 192.155 -134.36328125 192.75 C-109.84895385 208.06718086 -78.82674289 212.23420943 -50.73828125 205.96875 C-21.10198939 198.2887078 5.24169327 180.44135946 20.94189453 153.85400391 C35.4614472 128.4129603 41.69054079 97.73310447 35.09765625 68.81640625 C30.05280149 51.27611053 22.83820646 36.0335546 11 22 C10.47148437 21.33871094 9.94296875 20.67742188 9.3984375 19.99609375 C2.06658405 11.11794893 -7.42783202 4.2890311 -17 -2 C-17.86625 -2.58652344 -18.7325 -3.17304688 -19.625 -3.77734375 C-36.09989964 -14.23432866 -57.29897156 -18.59958243 -76.5625 -18.5 C-77.86590332 -18.49427979 -79.16930664 -18.48855957 -80.51220703 -18.48266602 C-113.17699298 -17.88580116 -142.23431789 -2.38436397 -163.58984375 21.9921875 Z " fill="#0FEEF0" transform="translate(204,33)"/>
<path d="M0 0 C1.18142578 -0.02900391 2.36285156 -0.05800781 3.58007812 -0.08789062 C13.28393039 -0.15777987 22.27266353 1.63510567 29.5859375 8.48046875 C31.62864255 11.53151547 31.64260614 14.26202424 31.3515625 17.8515625 C30.22569072 22.99141192 27.94011523 25.94031591 23.53515625 28.78125 C15.22862786 33.18409402 7.59649764 34.63406673 -1.6875 34.4375 C-2.92113281 34.42396484 -2.92113281 34.42396484 -4.1796875 34.41015625 C-6.18242083 34.38686865 -8.18500154 34.35100959 -10.1875 34.3125 C-9.09681858 38.06655651 -7.98763924 41.81489823 -6.875 45.5625 C-6.4119043 47.15771484 -6.4119043 47.15771484 -5.93945312 48.78515625 C-5.48022461 50.32236328 -5.48022461 50.32236328 -5.01171875 51.890625 C-4.73416748 52.83325195 -4.45661621 53.77587891 -4.1706543 54.74707031 C-3.17198432 57.3529864 -1.96729775 59.17937618 -0.1875 61.3125 C0.225 60.80460937 0.6375 60.29671875 1.0625 59.7734375 C9.55797084 49.64713967 19.55028457 43.14177109 32.8125 41.3125 C38.60237407 40.85839223 43.70103579 40.78538395 48.4140625 44.61328125 C50.69159429 47.38067323 50.33309621 49.86607454 50.24609375 53.3359375 C49.32722945 59.64381677 46.65148796 65.63452408 43.8125 71.3125 C44.49054688 70.56226563 45.16859375 69.81203125 45.8671875 69.0390625 C66.24323835 46.58705859 66.24323835 46.58705859 73.0625 46.0625 C75.8125 46.3125 75.8125 46.3125 76.8125 47.3125 C76.58280166 54.78881046 74.41794137 59.817228 70.75 66.25 C69.81832921 67.92395693 68.88977545 69.59965378 67.96484375 71.27734375 C67.55226318 72.0055835 67.13968262 72.73382324 66.71459961 73.48413086 C65.66501156 75.27162805 65.66501156 75.27162805 65.8125 77.3125 C66.38097656 76.67183594 66.94945312 76.03117187 67.53515625 75.37109375 C78.02163746 63.624134 89.32340227 53.90289357 101.8125 44.3125 C103.1325 44.9725 104.4525 45.6325 105.8125 46.3125 C106.1484375 48.94140625 106.1484375 48.94140625 105.8125 52.3125 C104.07753888 54.52740742 102.44661914 56.3225573 100.4375 58.25 C88.90803413 69.99046488 77.50746448 85.64534926 75.8125 102.3125 C76.34359375 102.08433594 76.8746875 101.85617188 77.421875 101.62109375 C78.12828125 101.33363281 78.8346875 101.04617187 79.5625 100.75 C80.25859375 100.45996094 80.9546875 100.16992188 81.671875 99.87109375 C84.11262784 99.23418197 85.4528655 99.51001169 87.8125 100.3125 C86.42467515 101.1591034 85.02680603 101.98925339 83.625 102.8125 C82.84769531 103.2765625 82.07039062 103.740625 81.26953125 104.21875 C78.52539629 105.44030452 76.78290303 105.67194373 73.8125 105.3125 C71.38794526 102.88794526 71.38036582 102.04742556 71.1875 98.6875 C71.4909864 84.13912069 84.02125853 68.99936221 91.8125 57.3125 C86.3657061 62.02846056 81.01510995 66.83215239 75.75 71.75 C75.08162109 72.36681641 74.41324219 72.98363281 73.72460938 73.61914062 C66.12952061 80.71231876 59.9321005 88.34939387 54.0234375 96.87109375 C51.57682353 99.57274346 50.38512012 100.06805757 46.8125 100.3125 C48.12762593 96.83103395 49.65912866 93.67290972 51.53515625 90.4609375 C52.06979492 89.53571289 52.60443359 88.61048828 53.15527344 87.65722656 C53.7227832 86.6772168 54.29029297 85.69720703 54.875 84.6875 C64.47756238 68.03740054 64.47756238 68.03740054 71.8125 50.3125 C65.83222304 52.7234463 61.95866781 56.74486675 57.5 61.3125 C56.74380371 62.07997559 55.98760742 62.84745117 55.20849609 63.63818359 C49.70199854 69.27988268 44.56041208 75.01104316 39.8125 81.3125 C39.12800781 82.20630371 39.12800781 82.20630371 38.4296875 83.11816406 C36.92127273 85.09154176 35.42695112 87.0747775 33.9375 89.0625 C33.47230957 89.67689941 33.00711914 90.29129883 32.52783203 90.92431641 C29.60875733 94.88950875 27.59134416 98.71813429 25.8125 103.3125 C23.8325 103.3125 21.8525 103.3125 19.8125 103.3125 C20.37212252 98.68687012 22.39415421 95.25627078 24.8125 91.375 C25.21186768 90.71967285 25.61123535 90.0643457 26.02270508 89.38916016 C28.39652338 85.517238 30.85529151 81.7087787 33.35961914 77.92041016 C42.98950199 63.7569589 42.98950199 63.7569589 44.8125 47.3125 C39.87826986 44.02301324 34.57168118 44.6930915 28.8125 45.3125 C18.51522898 48.35152268 10.14656273 56.93519122 3.8125 65.3125 C3.4825 65.9725 3.1525 66.6325 2.8125 67.3125 C4.7925 67.3125 6.7725 67.3125 8.8125 67.3125 C10.4625 64.3425 12.1125 61.3725 13.8125 58.3125 C14.4725 58.6425 15.1325 58.9725 15.8125 59.3125 C15.49283924 64.58690258 12.42213971 67.75073349 8.8125 71.3125 C6.07344655 72.68202673 3.84162668 72.43871361 0.8125 72.3125 C-0.1775 71.8175 -0.1775 71.8175 -1.1875 71.3125 C-2.69088527 76.95019475 -3.61888842 83.69866027 -0.75 88.9375 C3.14221427 91.02600522 6.49453967 91.02036235 10.8125 90.3125 C15.3749348 88.76537678 19.58349739 86.77050522 21.8125 82.3125 C22.53295367 79.16131675 22.53295367 79.16131675 22.8125 76.3125 C23.4725 76.3125 24.1325 76.3125 24.8125 76.3125 C25.25585931 79.34212193 25.30651206 81.49943848 23.6875 84.1640625 C19.70492382 89.0385698 16.16325836 91.93596276 9.71875 92.66015625 C0.82981059 93.05054886 0.82981059 93.05054886 -3.375 90 C-7.24680314 84.25905051 -7.73230004 81.15716957 -7.1875 74.3125 C-6.66048214 71.97224588 -6.06475456 69.70183732 -5.33203125 67.41796875 C-5.12303693 64.37342988 -6.60246371 62.92356424 -8.1875 60.3125 C-9.40233237 56.91964933 -10.383596 53.46379421 -11.375 50 C-11.64763672 49.06865234 -11.92027344 48.13730469 -12.20117188 47.17773438 C-12.86958029 44.89107399 -13.5314647 42.60273483 -14.1875 40.3125 C-14.8475 40.3125 -15.5075 40.3125 -16.1875 40.3125 C-17.98885194 42.4663553 -19.69069514 44.63255389 -21.375 46.875 C-28.93019785 56.66927484 -36.52611013 65.47014717 -49.1875 68.3125 C-52.56805629 68.65799711 -55.84576998 68.99119904 -59.1875 68.3125 C-61.38523837 66.01287972 -62.11526585 64.70978781 -62.6875 61.5625 C-61.73384053 55.36371346 -57.81304772 50.42409797 -53.1875 46.3125 C-52.1975 46.6425 -51.2075 46.9725 -50.1875 47.3125 C-50.950625 48.034375 -51.71375 48.75625 -52.5 49.5 C-55.95347118 53.11409774 -58.04789487 55.49763332 -58.4375 60.5625 C-58.49158759 63.22180721 -58.49158759 63.22180721 -57.1875 64.3125 C-50.61246942 65.1901299 -45.61548134 64.05942742 -40.1875 60.3125 C-30.1828404 52.48417869 -22.63301351 42.50263418 -15.1875 32.3125 C-16.8375 32.3125 -18.4875 32.3125 -20.1875 32.3125 C-19.8575 30.9925 -19.5275 29.6725 -19.1875 28.3125 C-16.5475 28.6425 -13.9075 28.9725 -11.1875 29.3125 C-10.97738281 28.78011719 -10.76726562 28.24773437 -10.55078125 27.69921875 C-8.64875103 24.36930338 -6.06259775 21.81909738 -3.375 19.125 C-2.85357422 18.57908203 -2.33214844 18.03316406 -1.79492188 17.47070312 C1.25430373 14.39863688 3.41858691 12.59676425 7.8125 12.3125 C8.3075 14.2925 8.3075 14.2925 8.8125 16.3125 C8.1525 16.6425 7.4925 16.9725 6.8125 17.3125 C6.8125 16.3225 6.8125 15.3325 6.8125 14.3125 C0.54293121 19.23044747 -3.88220795 24.62584328 -8.1875 31.3125 C3.03900798 30.95035458 14.70454186 29.84719278 22.8125 21.3125 C25.1270447 18.05109611 25.06373275 15.24847981 24.8125 11.3125 C24.15645107 8.24684552 24.15645107 8.24684552 22 7.25 C20.9171875 6.7859375 20.9171875 6.7859375 19.8125 6.3125 C19.19375 5.961875 18.575 5.61125 17.9375 5.25 C6.48573435 0.19775045 -9.19146879 2.66408833 -20.546875 6.81640625 C-29.484211 10.4891527 -38.7196336 14.6108262 -43.47265625 23.4296875 C-44.60291463 26.40665221 -44.44298545 29.18280327 -44.1875 32.3125 C-37.85652836 32.76471226 -33.43952772 32.02378297 -28.1875 28.3125 C-26.3526408 26.4079626 -24.80856432 24.41034794 -23.1875 22.3125 C-22.5275 22.3125 -21.8675 22.3125 -21.1875 22.3125 C-22.92702366 28.4008328 -27.1060963 31.10528585 -32.3125 34.125 C-37.28112083 36.09011745 -42.9487154 35.92461899 -48.1875 35.3125 C-50.1875 33.3125 -50.1875 33.3125 -50.41015625 31.5 C-49.88643356 24.34671446 -47.06608121 19.50005802 -42.1875 14.3125 C-29.32587927 3.51550786 -16.53377615 0.13312219 0 0 Z " fill="#E9E9E9" transform="translate(105.1875,80.6875)"/>
<path d="M0 0 C4.51601725 -0.36616356 4.51601725 -0.36616356 6.63671875 1.23828125 C8.83266352 4.07602077 8.52100782 6.53715884 8.43359375 10.0234375 C7.51472945 16.33131677 4.83898796 22.32202408 2 28 C2.67804688 27.24976563 3.35609375 26.49953125 4.0546875 25.7265625 C24.43073835 3.27455859 24.43073835 3.27455859 31.25 2.75 C34 3 34 3 35 4 C34.77030166 11.47631046 32.60544137 16.504728 28.9375 22.9375 C28.00582921 24.61145693 27.07727545 26.28715378 26.15234375 27.96484375 C25.5334729 29.05720337 25.5334729 29.05720337 24.90209961 30.17163086 C23.85251156 31.95912805 23.85251156 31.95912805 24 34 C24.56847656 33.35933594 25.13695312 32.71867187 25.72265625 32.05859375 C36.20913746 20.311634 47.51090227 10.59039357 60 1 C61.32 1.66 62.64 2.32 64 3 C64.3359375 5.62890625 64.3359375 5.62890625 64 9 C62.26503888 11.21490742 60.63411914 13.0100573 58.625 14.9375 C47.09553413 26.67796488 35.69496448 42.33284926 34 59 C34.53109375 58.77183594 35.0621875 58.54367188 35.609375 58.30859375 C36.31578125 58.02113281 37.0221875 57.73367187 37.75 57.4375 C38.44609375 57.14746094 39.1421875 56.85742188 39.859375 56.55859375 C42.30012784 55.92168197 43.6403655 56.19751169 46 57 C44.61217515 57.8466034 43.21430603 58.67675339 41.8125 59.5 C41.03519531 59.9640625 40.25789063 60.428125 39.45703125 60.90625 C36.71289629 62.12780452 34.97040303 62.35944373 32 62 C29.57544526 59.57544526 29.56786582 58.73492556 29.375 55.375 C29.6784864 40.82662069 42.20875853 25.68686221 50 14 C44.5532061 18.71596056 39.20260995 23.51965239 33.9375 28.4375 C32.93493164 29.36272461 32.93493164 29.36272461 31.91210938 30.30664062 C24.31702061 37.39981876 18.1196005 45.03689387 12.2109375 53.55859375 C9.76432353 56.26024346 8.57262012 56.75555757 5 57 C6.31512593 53.51853395 7.84662866 50.36040972 9.72265625 47.1484375 C10.52461426 45.76060059 10.52461426 45.76060059 11.34277344 44.34472656 C11.9102832 43.3647168 12.47779297 42.38470703 13.0625 41.375 C22.66506238 24.72490054 22.66506238 24.72490054 30 7 C24.01972304 9.4109463 20.14616781 13.43236675 15.6875 18 C14.55320557 19.15121338 14.55320557 19.15121338 13.39599609 20.32568359 C7.88949854 25.96738268 2.74791208 31.69854316 -2 38 C-2.68449219 38.89380371 -2.68449219 38.89380371 -3.3828125 39.80566406 C-4.89122727 41.77904176 -6.38554888 43.7622775 -7.875 45.75 C-8.34019043 46.36439941 -8.80538086 46.97879883 -9.28466797 47.61181641 C-12.20374267 51.57700875 -14.22115584 55.40563429 -16 60 C-17.98 60 -19.96 60 -22 60 C-21.44037748 55.37437012 -19.41834579 51.94377078 -17 48.0625 C-16.40094849 47.07950928 -16.40094849 47.07950928 -15.78979492 46.07666016 C-13.41597662 42.204738 -10.95720849 38.3962787 -8.45288086 34.60791016 C1.17700199 20.4444589 1.17700199 20.4444589 3 4 C2.01 3.34 1.02 2.68 0 2 C0 1.34 0 0.68 0 0 Z " fill="#ECECEC" transform="translate(147,124)"/>
<path d="M0 0 C1.84754883 -0.01836914 1.84754883 -0.01836914 3.73242188 -0.03710938 C5.50649414 -0.04000977 5.50649414 -0.04000977 7.31640625 -0.04296875 C8.3947876 -0.04707764 9.47316895 -0.05118652 10.58422852 -0.05541992 C13.40291496 0.18455552 15.0453535 0.72982522 17.4375 2.1875 C12.57432747 2.91040402 8.05211059 3.22536894 3.14672852 3.02001953 C-12.55489583 2.43352942 -25.43453682 7.50735407 -38.5 16.125 C-42.46039137 20.08539137 -44.45428116 23.48305333 -44.8125 29.125 C-44.73 30.135625 -44.6475 31.14625 -44.5625 32.1875 C-38.23152836 32.63971226 -33.81452772 31.89878297 -28.5625 28.1875 C-26.7276408 26.2829626 -25.18356432 24.28534794 -23.5625 22.1875 C-22.9025 22.1875 -22.2425 22.1875 -21.5625 22.1875 C-23.30202366 28.2758328 -27.4810963 30.98028585 -32.6875 34 C-37.65612083 35.96511745 -43.3237154 35.79961899 -48.5625 35.1875 C-50.5625 33.1875 -50.5625 33.1875 -50.78515625 31.375 C-50.26143356 24.22171446 -47.44108121 19.37505802 -42.5625 14.1875 C-29.53277149 3.2493858 -16.73289005 0.00878367 0 0 Z " fill="#E4E4E4" transform="translate(105.5625,80.8125)"/>
<path d="M0 0 C4.51601725 -0.36616356 4.51601725 -0.36616356 6.63671875 1.23828125 C8.83803288 4.08295939 8.52542269 6.54815726 8.41796875 10.04296875 C7.40540777 17.20660108 4.57869101 24.24126664 0.1875 30 C-2.27355127 32.68455893 -2.27355127 32.68455893 -1.8046875 35.2265625 C-2.10797218 39.53320496 -4.68433927 42.07405664 -7.3125 45.375 C-11.02872763 50.09341031 -13.86554166 54.36153327 -16 60 C-17.98 60 -19.96 60 -22 60 C-21.44037748 55.37437012 -19.41834579 51.94377078 -17 48.0625 C-16.40094849 47.07950928 -16.40094849 47.07950928 -15.78979492 46.07666016 C-13.41597662 42.204738 -10.95720849 38.3962787 -8.45288086 34.60791016 C1.17700199 20.4444589 1.17700199 20.4444589 3 4 C2.01 3.34 1.02 2.68 0 2 C0 1.34 0 0.68 0 0 Z " fill="#EEEEEE" transform="translate(147,124)"/>
<path d="M0 0 C5.91943034 -0.73992879 9.44332739 1.55091945 14 5 C16.14303153 6.72129077 16.89874019 7.51732823 17.46875 10.234375 C17.53413072 15.49752276 17.18349237 19.33997659 13.74609375 23.46875 C3.76348163 32.22307652 -8.52256105 32.29243998 -21 32 C-21 31.34 -21 30.68 -21 30 C-19.96101563 29.82984375 -18.92203125 29.6596875 -17.8515625 29.484375 C-3.55315353 27.54697717 -3.55315353 27.54697717 8.0625 19.875 C10.79062366 15.8268165 11.19921587 13.88078884 11 9 C10.35003098 5.95854206 10.35003098 5.95854206 8.3125 5 C7.549375 4.67 6.78625 4.34 6 4 C4 3 2 2 0 1 C0 0.67 0 0.34 0 0 Z " fill="#ECECEC" transform="translate(119,83)"/>
<path d="M0 0 C1.32 0.66 2.64 1.32 4 2 C3.01 2.66 2.02 3.32 1 4 C-9.47678443 12.43191807 -18.92642667 22.26689663 -27 33 C-27.66 31.68 -28.32 30.36 -29 29 C-27.42644522 27.42644522 -25.85197521 25.85726181 -24.25 24.3125 C-22.41065649 22.42206361 -20.70964111 20.50426372 -19 18.5 C-15.72555782 14.72727314 -12.2743351 11.16207366 -8.75 7.625 C-8.23050781 7.10099609 -7.71101563 6.57699219 -7.17578125 6.03710938 C-4.87600827 3.74629654 -2.71073941 1.8071596 0 0 Z " fill="#DFDFDF" transform="translate(173,128)"/>
<path d="M0 0 C0.66 0.33 1.32 0.66 2 1 C1.34 1.66 0.68 2.32 0 3 C0.33 3.66 0.66 4.32 1 5 C-1 7 -1 7 -3.5 8.5 C-7.81772085 11.27567769 -11.13799571 15.13746272 -14.6328125 18.85546875 C-16.98344453 20.98500173 -17.99341863 21.46265354 -21 22 C-23.22977996 23.97901574 -23.22977996 23.97901574 -25 26 C-25.66 25.67 -26.32 25.34 -27 25 C-19.66703282 17.47434171 -12.37711648 10.17844078 -4.109375 3.671875 C-1.9477701 2.02439391 -1.9477701 2.02439391 0 0 Z " fill="#E3E3E3" transform="translate(200,130)"/>
<path d="M0 0 C1.84754883 -0.01836914 1.84754883 -0.01836914 3.73242188 -0.03710938 C5.50649414 -0.04000977 5.50649414 -0.04000977 7.31640625 -0.04296875 C8.3947876 -0.04707764 9.47316895 -0.05118652 10.58422852 -0.05541992 C13.40291496 0.18455552 15.0453535 0.72982522 17.4375 2.1875 C11.71472773 3.02545417 6.27378292 3.24818718 0.5 3.125 C-5.83453913 3.04710036 -11.44135978 3.37382882 -17.5625 5.1875 C-17.8925 3.8675 -18.2225 2.5475 -18.5625 1.1875 C-12.41395372 -0.23949795 -6.28075038 0.00329698 0 0 Z " fill="#DCDCDC" transform="translate(105.5625,80.8125)"/>
<path d="M0 0 C0.66 0.33 1.32 0.66 2 1 C1.38125 1.495 0.7625 1.99 0.125 2.5 C-2.34223467 5.40262903 -2.74219178 7.45328642 -3.49609375 11.09375 C-4.14106656 13.53364714 -5.30646039 15.15250225 -7 17 C-8.98 16.67 -10.96 16.34 -13 16 C-11.57699887 11.31095412 -8.84303666 8.48389525 -5.375 5.1875 C-4.859375 4.68541016 -4.34375 4.18332031 -3.8125 3.66601562 C-2.54840846 2.43703773 -1.27511194 1.21753999 0 0 Z " fill="#2F2F2F" transform="translate(121,132)"/>
<path d="M0 0 C0.33 0.99 0.66 1.98 1 3 C-0.91256146 5.10802765 -2.82980255 7.21144674 -4.75 9.3125 C-5.28882812 9.90740234 -5.82765625 10.50230469 -6.3828125 11.11523438 C-12.09853045 17.35373141 -12.09853045 17.35373141 -15 19 C-15.99 18.67 -16.98 18.34 -18 18 C-17.30132812 17.24074219 -16.60265625 16.48148438 -15.8828125 15.69921875 C-14.96343578 14.69540947 -14.04417079 13.69149785 -13.125 12.6875 C-12.66480469 12.18798828 -12.20460938 11.68847656 -11.73046875 11.17382812 C-9.61393392 8.85790957 -7.74473617 6.61710426 -6 4 C-4.35857037 2.9590934 -2.69287785 1.95495674 -1 1 C-0.67 0.67 -0.34 0.34 0 0 Z " fill="#EDEDED" transform="translate(83,125)"/>
<path d="M0 0 C0.66 0 1.32 0 2 0 C2.44335931 3.02962193 2.49401206 5.18693848 0.875 7.8515625 C-2.27032296 11.70130675 -5.17085425 14.50735495 -10 16 C-21.66112957 16.89258029 -21.66112957 16.89258029 -26 14 C-25.67 12.68 -25.34 11.36 -25 10 C-24.525625 10.66 -24.05125 11.32 -23.5625 12 C-20.32257278 14.52872369 -18.39934369 14.5762073 -14.3828125 14.390625 C-9.52698162 13.59458715 -5.58502558 11.53389572 -2.0625 8.125 C-0.72494941 5.44989881 -0.33604396 2.95718683 0 0 Z " fill="#CACACA" transform="translate(128,157)"/>
<path d="M0 0 C-4.49420652 1.326339 -9.05748298 1.36499028 -13.7109375 1.62109375 C-17.04547232 2.0052385 -19.86326619 2.82964766 -23 4 C-23.66 3.01 -24.32 2.02 -25 1 C-7.23075065 -4.05115717 -7.23075065 -4.05115717 0 0 Z " fill="#DADADA" transform="translate(151,124)"/>
<path d="M0 0 C0.58007812 0.226875 1.16015625 0.45375 1.7578125 0.6875 C1.4278125 2.0075 1.0978125 3.3275 0.7578125 4.6875 C0.4278125 3.6975 0.0978125 2.7075 -0.2421875 1.6875 C-5.52613311 6.20625286 -5.52613311 6.20625286 -10.4921875 11.0625 C-12.44706668 12.87774496 -13.68369406 13.14831337 -16.2421875 13.6875 C-13.05855375 9.78754865 -9.80498634 6.1197772 -6.1171875 2.6875 C-5.47523437 2.089375 -4.83328125 1.49125 -4.171875 0.875 C-2.2421875 -0.3125 -2.2421875 -0.3125 0 0 Z " fill="#DCDCDC" transform="translate(112.2421875,93.3125)"/>
<path d="M0 0 C0.66 0 1.32 0 2 0 C0.65073486 4.72242799 -1.89801964 7.45902696 -6 10 C-8.92970288 11.36584068 -11.78551403 12.57335004 -15 13 C-17.2734375 12.06640625 -17.2734375 12.06640625 -19 11 C-17.824375 10.7525 -16.64875 10.505 -15.4375 10.25 C-8.65385556 8.5330776 -4.25214663 5.66952884 0 0 Z " fill="#D2D2D2" transform="translate(82,103)"/>
<path d="M0 0 C-0.66 1.32 -1.32 2.64 -2 4 C-6.95 4 -11.9 4 -17 4 C-17 3.34 -17 2.68 -17 2 C-15.10507994 1.66151348 -13.20901534 1.32943089 -11.3125 1 C-9.72888672 0.7215625 -9.72888672 0.7215625 -8.11328125 0.4375 C-5.35095938 0.04931926 -2.78257957 -0.08259976 0 0 Z " fill="#F3F3F3" transform="translate(115,111)"/>
<path d="M0 0 C0.66 0.33 1.32 0.66 2 1 C0.56354149 2.60509934 -0.87420706 4.20904424 -2.3125 5.8125 C-3.11300781 6.70582031 -3.91351563 7.59914063 -4.73828125 8.51953125 C-6.45224581 10.39926786 -8.17877604 12.22592747 -10 14 C-10.99 13.67 -11.98 13.34 -13 13 C-8.71 8.71 -4.42 4.42 0 0 Z " fill="#34D7F2" transform="translate(50,34)"/>
<path d="M0 0 C0.99 0.33 1.98 0.66 3 1 C1.8553125 2.0828125 1.8553125 2.0828125 0.6875 3.1875 C-3.1409242 7.19399045 -5.2124927 10.48744891 -6 16 C-7.79964847 13.40050776 -8.05020707 12.28869062 -7.5 9.125 C-5.58610755 5.13772406 -3.25734746 2.97409985 0 0 Z " fill="#D6D6D6" transform="translate(52,127)"/>
<path d="M0 0 C-2.34591852 2.7710688 -4.14776201 3.52059284 -7.6875 4.1875 C-8.49574219 4.34605469 -9.30398437 4.50460938 -10.13671875 4.66796875 C-11.05904297 4.83232422 -11.05904297 4.83232422 -12 5 C-12.33 3.68 -12.66 2.36 -13 1 C-8.59085217 -0.10228696 -4.51617599 -0.07654536 0 0 Z " fill="#CCCCCC" transform="translate(100,81)"/>
<path d="M0 0 C0.66 0.33 1.32 0.66 2 1 C1.2884375 1.928125 1.2884375 1.928125 0.5625 2.875 C-1.02417441 4.90705546 -1.02417441 4.90705546 -2 7 C-5.0625 7.625 -5.0625 7.625 -8 8 C-6.88333826 4.65001479 -6.25305075 4.20659778 -3.4375 2.3125 C-2.79683594 1.87550781 -2.15617187 1.43851563 -1.49609375 0.98828125 C-1.00238281 0.66214844 -0.50867188 0.33601562 0 0 Z " fill="#E6E6E6" transform="translate(67,139)"/>
<path d="M0 0 C0.66 0.33 1.32 0.66 2 1 C1.34 1.66 0.68 2.32 0 3 C0.33 3.66 0.66 4.32 1 5 C-1 7 -1 7 -4 8 C-4.99 7.34 -5.98 6.68 -7 6 C-4.69 4.02 -2.38 2.04 0 0 Z " fill="#D4D4D4" transform="translate(200,130)"/>
<path d="M0 0 C1.41623216 -0.05447047 2.83308191 -0.09300508 4.25 -0.125 C5.03890625 -0.14820312 5.8278125 -0.17140625 6.640625 -0.1953125 C9.20731941 0.0171622 10.7916067 0.71345895 13 2 C10.00519083 2.8723412 7.36424089 3.10829766 4.25 3.0625 C3.45078125 3.05347656 2.6515625 3.04445313 1.828125 3.03515625 C1.22484375 3.02355469 0.6215625 3.01195313 0 3 C0 2.01 0 1.02 0 0 Z " fill="#A4A4A4" transform="translate(138,122)"/>
<path d="M0 0 C0.66 0 1.32 0 2 0 C2.35338623 2.96844435 2.5417682 5.15598218 0.88671875 7.734375 C-0.35503168 9.20348819 -1.67337918 10.60704814 -3 12 C-3 9 -3 9 -1 6 C-0.60986284 4.0103005 -0.26797351 2.00980131 0 0 Z " fill="#D0D0D0" transform="translate(128,157)"/>
<path d="M0 0 C0.33 0.66 0.66 1.32 1 2 C1.66 2.33 2.32 2.66 3 3 C0.69 5.97 -1.62 8.94 -4 12 C-4.33 11.34 -4.66 10.68 -5 10 C-4.00390625 7.6171875 -4.00390625 7.6171875 -2.5625 4.875 C-1.85287109 3.50988281 -1.85287109 3.50988281 -1.12890625 2.1171875 C-0.75636719 1.41851562 -0.38382813 0.71984375 0 0 Z " fill="#565656" transform="translate(152,143)"/>
<path d="M0 0 C0.66 0.33 1.32 0.66 2 1 C1.50168276 4.68754757 0.89932357 6.60490662 -2 9 C-2.66 8.34 -3.32 7.68 -4 7 C-2.68 4.69 -1.36 2.38 0 0 Z " fill="#CFCFCF" transform="translate(119,139)"/>
<path d="M0 0 C0.33 0.99 0.66 1.98 1 3 C-4.625 7 -4.625 7 -8 7 C-3.375 1.125 -3.375 1.125 0 0 Z " fill="#E0E0E0" transform="translate(86,121)"/>
<path d="M0 0 C0.66 0 1.32 0 2 0 C0.64978174 4.41889613 -1.26115668 6.34345343 -5 9 C-5.66 8.34 -6.32 7.68 -7 7 C-5.47005208 5.76302083 -3.94010417 4.52604167 -2.41015625 3.2890625 C-0.86733563 2.0333609 -0.86733563 2.0333609 0 0 Z " fill="#C5C5C5" transform="translate(82,103)"/>
<path d="M0 0 C2.25 0.25 2.25 0.25 4 1 C3.01 2.485 3.01 2.485 2 4 C-1.125 4.1875 -1.125 4.1875 -4 4 C-2.25 1.9375 -2.25 1.9375 0 0 Z " fill="#EBEBEB" transform="translate(85,83)"/>
<path d="M0 0 C-0.33 1.32 -0.66 2.64 -1 4 C-1.33 3.01 -1.66 2.02 -2 1 C-3.98 1.99 -3.98 1.99 -6 3 C-6 2.01 -6 1.02 -6 0 C-3.50907189 -1.24546405 -2.58919267 -0.7767578 0 0 Z " fill="#C7C7C7" transform="translate(114,94)"/>
</svg>
